<?xml version="1.0" standalone="no"?>
<!DOCTYPE svg PUBLIC "-//W3C//DTD SVG 20010904//EN"
 "http://www.w3.org/TR/2001/REC-SVG-20010904/DTD/svg10.dtd">
<svg version="1.0" xmlns="http://www.w3.org/2000/svg"
 width="500.000000pt" height="500.000000pt" viewBox="0 0 500.000000 500.000000"
 preserveAspectRatio="xMidYMid meet">
<metadata>
Created by potrace 1.14, written by Peter Selinger 2001-2017
</metadata>
<g transform="translate(0.000000,500.000000) scale(0.100000,-0.100000)"
fill="#000000" stroke="none">
<path d="M3371 3944 c0 -11 3 -14 6 -6 3 7 2 16 -1 19 -3 4 -6 -2 -5 -13z"/>
<path d="M842 3414 c10 -10 20 -15 24 -12 3 4 -5 12 -18 18 -22 12 -22 12 -6
-6z"/>
<path d="M770 3312 c0 -2 20 -24 44 -50 25 -26 65 -69 89 -97 25 -27 60 -66
78 -86 19 -20 68 -73 109 -119 41 -45 91 -100 111 -121 19 -21 55 -59 79 -86
23 -26 79 -88 124 -137 44 -49 88 -97 96 -106 27 -30 164 -181 200 -219 19
-21 67 -73 106 -117 40 -43 87 -95 105 -115 19 -20 70 -76 114 -125 44 -48 91
-100 105 -115 74 -80 199 -217 227 -248 17 -20 57 -63 88 -96 l56 -60 45 50
c25 28 80 88 122 134 43 46 84 92 92 101 8 9 56 62 106 116 50 54 113 123 140
153 27 30 58 64 69 75 11 12 58 64 105 116 47 52 92 101 100 110 45 49 388
425 425 466 6 6 51 55 100 109 50 54 98 107 108 119 10 11 53 58 94 104 42 45
87 95 101 110 13 15 44 48 69 74 24 26 45 51 46 55 1 4 -121 8 -270 8 l-273 1
-77 -127 -78 -128 -228 1 c-125 1 -229 -1 -231 -3 -5 -6 -116 -329 -133 -386
-9 -29 -21 -53 -28 -53 -6 0 -22 -12 -36 -26 -27 -30 -93 -63 -125 -64 -16 0
-20 6 -21 28 0 15 -4 54 -8 87 -5 33 -9 67 -10 75 -14 107 -28 138 -59 127 -7
-3 -21 -27 -31 -54 -9 -26 -20 -55 -25 -63 -4 -9 -11 -30 -14 -48 -16 -72 -38
-44 -56 70 -8 49 -19 83 -31 93 -16 16 -19 15 -34 -8 -8 -13 -25 -71 -36 -128
-11 -56 -21 -105 -23 -107 -6 -6 -25 68 -41 158 -3 19 -13 42 -21 50 -25 25
-47 0 -79 -91 -48 -134 -69 -160 -127 -157 -15 1 -25 12 -26 28 0 5 -26 75
-42 115 -4 11 -17 49 -28 85 -33 105 -88 259 -94 266 -3 3 -109 6 -235 6
l-229 0 -65 104 c-35 58 -69 115 -76 127 -12 22 -14 22 -288 22 -151 1 -275
-1 -275 -3z m739 -296 c-3 -3 -11 5 -18 17 -13 21 -12 21 5 5 10 -10 16 -20
13 -22z m1150 -1137 c-44 -129 -93 -272 -110 -319 -16 -47 -31 -93 -34 -104
-5 -21 -13 -32 -19 -25 -1 2 -44 124 -94 271 l-90 266 31 -5 c18 -3 57 -5 88
-6 70 0 184 52 255 117 27 24 50 43 51 42 2 -1 -34 -108 -78 -237z"/>
<path d="M1983 1223 c-9 -3 -13 -29 -13 -79 0 -59 3 -74 15 -74 16 0 17 5 16
65 l-1 40 17 -24 c10 -14 26 -34 36 -45 l17 -21 18 22 c9 12 24 33 33 45 l16
23 1 -30 c0 -65 2 -75 17 -75 12 0 15 15 15 74 0 96 -17 106 -63 36 -35 -54
-43 -59 -52 -32 -9 29 -59 80 -72 75z"/>
<path d="M2411 1221 c-60 -17 -76 -87 -29 -131 34 -31 128 -26 128 7 0 10 -6
12 -22 7 -53 -17 -98 2 -98 42 0 39 27 57 77 49 34 -5 43 -3 43 8 0 8 -14 17
-31 21 -35 7 -34 7 -68 -3z"/>
<path d="M2594 1220 c-12 -5 -29 -19 -38 -32 -39 -55 2 -118 76 -118 47 0 74
12 64 28 -4 6 -18 8 -34 3 -44 -11 -70 -2 -80 28 -8 21 -6 33 8 51 15 20 22
22 64 16 29 -5 46 -3 46 3 0 23 -68 37 -106 21z"/>
<path d="M2737 1216 c-3 -9 -2 -115 2 -138 0 -5 28 -8 61 -8 45 0 60 4 60 14
0 10 -12 13 -45 11 -40 -2 -45 0 -45 20 0 19 5 22 42 21 25 -1 43 4 45 12 3 8
-9 12 -41 12 -39 0 -46 3 -46 19 0 16 7 20 41 19 22 0 46 5 52 11 13 13 11 13
-65 15 -33 1 -59 -2 -61 -8z"/>
<path d="M2890 1220 c-21 -13 -2 -27 30 -22 l30 4 0 -67 c0 -57 2 -66 17 -63
14 2 17 14 16 66 -1 59 1 63 21 61 37 -2 48 1 44 13 -5 14 -138 20 -158 8z"/>
<path d="M2206 1158 c3 -12 15 -35 25 -52 13 -22 15 -34 8 -49 -12 -21 -6 -32
13 -24 11 4 78 125 78 141 0 3 -6 6 -13 6 -8 0 -22 -18 -32 -40 l-18 -40 -20
40 c-22 43 -54 57 -41 18z"/>
</g>
</svg>
